<mxfile host="app.diagrams.net" agent="Mozilla/5.0 (Windows NT 10.0; Win64; x64) AppleWebKit/537.36 (KHTML, like Gecko) Chrome/129.0.0.0 Safari/537.36 Edg/129.0.0.0" version="27.0.4">
  <diagram name="第 1 页" id="oCQQWqERgK3mjO1e3gCn">
    <mxGraphModel dx="1235" dy="729" grid="1" gridSize="10" guides="1" tooltips="1" connect="1" arrows="1" fold="1" page="1" pageScale="1" pageWidth="827" pageHeight="1169" math="0" shadow="0">
      <root>
        <mxCell id="0" />
        <mxCell id="1" parent="0" />
        <mxCell id="ehFxxDQy65vC9pydD39e-1" value="结束" style="rounded=1;whiteSpace=wrap;arcSize=50;strokeWidth=2;fontSize=17;" vertex="1" parent="1">
          <mxGeometry x="286" y="1010" width="57" height="39" as="geometry" />
        </mxCell>
        <mxCell id="ehFxxDQy65vC9pydD39e-44" value="" style="curved=1;startArrow=none;endArrow=block;exitX=0;exitY=0.3;entryX=0;entryY=0.69;rounded=0;" edge="1" parent="1" source="ehFxxDQy65vC9pydD39e-12">
          <mxGeometry relative="1" as="geometry">
            <Array as="points">
              <mxPoint x="100" y="1289" />
              <mxPoint x="100" y="1174" />
            </Array>
            <mxPoint x="307.072463768116" y="1093.072463768116" as="targetPoint" />
          </mxGeometry>
        </mxCell>
        <mxCell id="ehFxxDQy65vC9pydD39e-59" value="否" style="curved=1;startArrow=none;endArrow=block;exitX=1;exitY=0.99;entryX=0.99;entryY=0.32;rounded=0;" edge="1" parent="1" target="ehFxxDQy65vC9pydD39e-23">
          <mxGeometry relative="1" as="geometry">
            <Array as="points">
              <mxPoint x="922" y="2242" />
              <mxPoint x="922" y="3066" />
            </Array>
            <mxPoint x="845.3939393939395" y="2166.606060606061" as="sourcePoint" />
          </mxGeometry>
        </mxCell>
        <mxCell id="ehFxxDQy65vC9pydD39e-91" value="" style="edgeStyle=orthogonalEdgeStyle;rounded=0;orthogonalLoop=1;jettySize=auto;html=1;fontSize=17;" edge="1" parent="1" source="ehFxxDQy65vC9pydD39e-76" target="ehFxxDQy65vC9pydD39e-78">
          <mxGeometry relative="1" as="geometry" />
        </mxCell>
        <mxCell id="ehFxxDQy65vC9pydD39e-76" value="进入Simon算法模拟页面" style="rounded=0;whiteSpace=wrap;html=1;fontSize=17;" vertex="1" parent="1">
          <mxGeometry x="254.5" y="120" width="120" height="60" as="geometry" />
        </mxCell>
        <mxCell id="ehFxxDQy65vC9pydD39e-92" value="" style="edgeStyle=orthogonalEdgeStyle;rounded=0;orthogonalLoop=1;jettySize=auto;html=1;fontSize=17;" edge="1" parent="1" source="ehFxxDQy65vC9pydD39e-78" target="ehFxxDQy65vC9pydD39e-80">
          <mxGeometry relative="1" as="geometry" />
        </mxCell>
        <mxCell id="ehFxxDQy65vC9pydD39e-113" value="否" style="edgeLabel;html=1;align=center;verticalAlign=middle;resizable=0;points=[];fontSize=17;" vertex="1" connectable="0" parent="ehFxxDQy65vC9pydD39e-92">
          <mxGeometry x="-0.2647" y="3" relative="1" as="geometry">
            <mxPoint as="offset" />
          </mxGeometry>
        </mxCell>
        <mxCell id="ehFxxDQy65vC9pydD39e-100" value="" style="edgeStyle=orthogonalEdgeStyle;rounded=0;orthogonalLoop=1;jettySize=auto;html=1;fontSize=17;" edge="1" parent="1" source="ehFxxDQy65vC9pydD39e-78" target="ehFxxDQy65vC9pydD39e-79">
          <mxGeometry relative="1" as="geometry" />
        </mxCell>
        <mxCell id="ehFxxDQy65vC9pydD39e-104" value="是" style="edgeLabel;html=1;align=center;verticalAlign=middle;resizable=0;points=[];fontSize=17;" vertex="1" connectable="0" parent="ehFxxDQy65vC9pydD39e-100">
          <mxGeometry x="-0.1269" y="2" relative="1" as="geometry">
            <mxPoint as="offset" />
          </mxGeometry>
        </mxCell>
        <mxCell id="ehFxxDQy65vC9pydD39e-78" value="是否选择算法&lt;div&gt;模拟页面&lt;/div&gt;" style="rhombus;whiteSpace=wrap;html=1;fontSize=17;" vertex="1" parent="1">
          <mxGeometry x="246" y="210" width="137" height="110" as="geometry" />
        </mxCell>
        <mxCell id="ehFxxDQy65vC9pydD39e-79" value="进入算法模拟页面" style="rounded=0;whiteSpace=wrap;html=1;fontSize=17;" vertex="1" parent="1">
          <mxGeometry x="440" y="235" width="120" height="60" as="geometry" />
        </mxCell>
        <mxCell id="ehFxxDQy65vC9pydD39e-93" value="" style="edgeStyle=orthogonalEdgeStyle;rounded=0;orthogonalLoop=1;jettySize=auto;html=1;fontSize=17;" edge="1" parent="1" source="ehFxxDQy65vC9pydD39e-80" target="ehFxxDQy65vC9pydD39e-82">
          <mxGeometry relative="1" as="geometry" />
        </mxCell>
        <mxCell id="ehFxxDQy65vC9pydD39e-112" value="否" style="edgeLabel;html=1;align=center;verticalAlign=middle;resizable=0;points=[];fontSize=17;" vertex="1" connectable="0" parent="ehFxxDQy65vC9pydD39e-93">
          <mxGeometry x="-0.2187" y="-4" relative="1" as="geometry">
            <mxPoint as="offset" />
          </mxGeometry>
        </mxCell>
        <mxCell id="ehFxxDQy65vC9pydD39e-99" value="" style="edgeStyle=orthogonalEdgeStyle;rounded=0;orthogonalLoop=1;jettySize=auto;html=1;fontSize=17;" edge="1" parent="1" source="ehFxxDQy65vC9pydD39e-80" target="ehFxxDQy65vC9pydD39e-81">
          <mxGeometry relative="1" as="geometry" />
        </mxCell>
        <mxCell id="ehFxxDQy65vC9pydD39e-105" value="是" style="edgeLabel;html=1;align=center;verticalAlign=middle;resizable=0;points=[];fontSize=17;" vertex="1" connectable="0" parent="ehFxxDQy65vC9pydD39e-99">
          <mxGeometry x="-0.2015" y="-4" relative="1" as="geometry">
            <mxPoint as="offset" />
          </mxGeometry>
        </mxCell>
        <mxCell id="ehFxxDQy65vC9pydD39e-80" value="是否进入算法&lt;div&gt;原理页面&lt;/div&gt;" style="rhombus;whiteSpace=wrap;html=1;fontSize=17;" vertex="1" parent="1">
          <mxGeometry x="246" y="370" width="137" height="110" as="geometry" />
        </mxCell>
        <mxCell id="ehFxxDQy65vC9pydD39e-81" value="进入算法原理页面" style="rounded=0;whiteSpace=wrap;html=1;fontSize=17;" vertex="1" parent="1">
          <mxGeometry x="440" y="395" width="120" height="60" as="geometry" />
        </mxCell>
        <mxCell id="ehFxxDQy65vC9pydD39e-94" value="" style="edgeStyle=orthogonalEdgeStyle;rounded=0;orthogonalLoop=1;jettySize=auto;html=1;fontSize=17;" edge="1" parent="1" source="ehFxxDQy65vC9pydD39e-82" target="ehFxxDQy65vC9pydD39e-84">
          <mxGeometry relative="1" as="geometry" />
        </mxCell>
        <mxCell id="ehFxxDQy65vC9pydD39e-111" value="否" style="edgeLabel;html=1;align=center;verticalAlign=middle;resizable=0;points=[];fontSize=17;" vertex="1" connectable="0" parent="ehFxxDQy65vC9pydD39e-94">
          <mxGeometry x="-0.2647" y="-4" relative="1" as="geometry">
            <mxPoint as="offset" />
          </mxGeometry>
        </mxCell>
        <mxCell id="ehFxxDQy65vC9pydD39e-98" value="" style="edgeStyle=orthogonalEdgeStyle;rounded=0;orthogonalLoop=1;jettySize=auto;html=1;fontSize=17;" edge="1" parent="1" source="ehFxxDQy65vC9pydD39e-82" target="ehFxxDQy65vC9pydD39e-83">
          <mxGeometry relative="1" as="geometry" />
        </mxCell>
        <mxCell id="ehFxxDQy65vC9pydD39e-106" value="是" style="edgeLabel;html=1;align=center;verticalAlign=middle;resizable=0;points=[];fontSize=17;" vertex="1" connectable="0" parent="ehFxxDQy65vC9pydD39e-98">
          <mxGeometry x="-0.1269" y="1" relative="1" as="geometry">
            <mxPoint as="offset" />
          </mxGeometry>
        </mxCell>
        <mxCell id="ehFxxDQy65vC9pydD39e-82" value="是否进入执行&lt;div&gt;日志页面&lt;/div&gt;" style="rhombus;whiteSpace=wrap;html=1;fontSize=17;" vertex="1" parent="1">
          <mxGeometry x="246" y="530" width="137" height="110" as="geometry" />
        </mxCell>
        <mxCell id="ehFxxDQy65vC9pydD39e-83" value="进入执行日志页面" style="rounded=0;whiteSpace=wrap;html=1;fontSize=17;" vertex="1" parent="1">
          <mxGeometry x="460" y="555" width="120" height="60" as="geometry" />
        </mxCell>
        <mxCell id="ehFxxDQy65vC9pydD39e-95" value="" style="edgeStyle=orthogonalEdgeStyle;rounded=0;orthogonalLoop=1;jettySize=auto;html=1;fontSize=17;" edge="1" parent="1" source="ehFxxDQy65vC9pydD39e-84" target="ehFxxDQy65vC9pydD39e-86">
          <mxGeometry relative="1" as="geometry" />
        </mxCell>
        <mxCell id="ehFxxDQy65vC9pydD39e-110" value="否" style="edgeLabel;html=1;align=center;verticalAlign=middle;resizable=0;points=[];fontSize=17;" vertex="1" connectable="0" parent="ehFxxDQy65vC9pydD39e-95">
          <mxGeometry x="-0.2143" y="-2" relative="1" as="geometry">
            <mxPoint as="offset" />
          </mxGeometry>
        </mxCell>
        <mxCell id="ehFxxDQy65vC9pydD39e-97" value="" style="edgeStyle=orthogonalEdgeStyle;rounded=0;orthogonalLoop=1;jettySize=auto;html=1;fontSize=17;" edge="1" parent="1" source="ehFxxDQy65vC9pydD39e-84" target="ehFxxDQy65vC9pydD39e-85">
          <mxGeometry relative="1" as="geometry" />
        </mxCell>
        <mxCell id="ehFxxDQy65vC9pydD39e-107" value="是" style="edgeLabel;html=1;align=center;verticalAlign=middle;resizable=0;points=[];fontSize=17;" vertex="1" connectable="0" parent="ehFxxDQy65vC9pydD39e-97">
          <mxGeometry x="-0.3134" y="4" relative="1" as="geometry">
            <mxPoint as="offset" />
          </mxGeometry>
        </mxCell>
        <mxCell id="ehFxxDQy65vC9pydD39e-84" value="是否进入操作&lt;div&gt;记录页面&lt;/div&gt;" style="rhombus;whiteSpace=wrap;html=1;fontSize=17;" vertex="1" parent="1">
          <mxGeometry x="246" y="690" width="137" height="110" as="geometry" />
        </mxCell>
        <mxCell id="ehFxxDQy65vC9pydD39e-85" value="进入操作记录页面" style="rounded=0;whiteSpace=wrap;html=1;fontSize=17;" vertex="1" parent="1">
          <mxGeometry x="460" y="715" width="120" height="60" as="geometry" />
        </mxCell>
        <mxCell id="ehFxxDQy65vC9pydD39e-96" value="" style="edgeStyle=orthogonalEdgeStyle;rounded=0;orthogonalLoop=1;jettySize=auto;html=1;fontSize=17;" edge="1" parent="1" source="ehFxxDQy65vC9pydD39e-86" target="ehFxxDQy65vC9pydD39e-88">
          <mxGeometry relative="1" as="geometry" />
        </mxCell>
        <mxCell id="ehFxxDQy65vC9pydD39e-108" value="是" style="edgeLabel;html=1;align=center;verticalAlign=middle;resizable=0;points=[];fontSize=17;" vertex="1" connectable="0" parent="ehFxxDQy65vC9pydD39e-96">
          <mxGeometry x="-0.3134" relative="1" as="geometry">
            <mxPoint as="offset" />
          </mxGeometry>
        </mxCell>
        <mxCell id="ehFxxDQy65vC9pydD39e-101" value="" style="edgeStyle=orthogonalEdgeStyle;rounded=0;orthogonalLoop=1;jettySize=auto;html=1;fontSize=17;" edge="1" parent="1" source="ehFxxDQy65vC9pydD39e-86" target="ehFxxDQy65vC9pydD39e-1">
          <mxGeometry relative="1" as="geometry" />
        </mxCell>
        <mxCell id="ehFxxDQy65vC9pydD39e-109" value="否" style="edgeLabel;html=1;align=center;verticalAlign=middle;resizable=0;points=[];fontSize=17;" vertex="1" connectable="0" parent="ehFxxDQy65vC9pydD39e-101">
          <mxGeometry x="-0.4167" y="1" relative="1" as="geometry">
            <mxPoint as="offset" />
          </mxGeometry>
        </mxCell>
        <mxCell id="ehFxxDQy65vC9pydD39e-86" value="是否进入算法&lt;div&gt;设置页面&lt;/div&gt;" style="rhombus;whiteSpace=wrap;html=1;fontSize=17;" vertex="1" parent="1">
          <mxGeometry x="246" y="850" width="137" height="110" as="geometry" />
        </mxCell>
        <mxCell id="ehFxxDQy65vC9pydD39e-88" value="进入算法设置页面" style="rounded=0;whiteSpace=wrap;html=1;fontSize=17;" vertex="1" parent="1">
          <mxGeometry x="460" y="875" width="120" height="60" as="geometry" />
        </mxCell>
        <mxCell id="ehFxxDQy65vC9pydD39e-90" value="" style="edgeStyle=orthogonalEdgeStyle;rounded=0;orthogonalLoop=1;jettySize=auto;html=1;fontSize=17;" edge="1" parent="1" source="ehFxxDQy65vC9pydD39e-89" target="ehFxxDQy65vC9pydD39e-76">
          <mxGeometry relative="1" as="geometry" />
        </mxCell>
        <mxCell id="ehFxxDQy65vC9pydD39e-89" value="开始" style="rounded=1;whiteSpace=wrap;arcSize=50;strokeWidth=2;fontSize=10;" vertex="1" parent="1">
          <mxGeometry x="286" y="50" width="57" height="39" as="geometry" />
        </mxCell>
      </root>
    </mxGraphModel>
  </diagram>
</mxfile>
